# xmcd CD database file
#
# Track frame offsets:
#	150
#	15270
#	30710
#	43027
#	59685
#	71732
#	89562
#	107612
#	129887
#	143647
#	159182
#
# Disc length: 2259 seconds
#
# Revision: 1
# Processed by: cddbd v1.5.1PL2 Copyright (c) Steve Scherf et al.
# Submitted via: CDex 1.51
#
DISCID=8a08d10b
DTITLE=Vanessa Paradis - Vanessa Paradis
DYEAR=1992
DGENRE=Chanson
TTITLE0=Natural High
TTITLE1=I`m Waiting For A Man
TTITLE2=Silver And Gold
TTITLE3=Be My Baby
TTITLE4=Lonley Rainbows
TTITLE5=Sunday Mondays
TTITLE6=Your Love Has Got A Handle On My Mind
TTITLE7=The Future Song
TTITLE8=Paradis
TTITLE9=Just As Long As You Are There
TTITLE10=Gotta Have It
EXTD=YEAR: 1992
EXTT0=
EXTT1=
EXTT2=
EXTT3=
EXTT4=
EXTT5=
EXTT6=
EXTT7=
EXTT8=
EXTT9=
EXTT10=
PLAYORDER=
